<?xml version="1.0" encoding="iso-8859-1"?>
<!-- Generator: Adobe Illustrator 19.0.0, SVG Export Plug-In . SVG Version: 6.00 Build 0)  -->
<svg version="1.1" id="Capa_1" fill="#fa5d3a" xmlns="http://www.w3.org/2000/svg" xmlns:xlink="http://www.w3.org/1999/xlink" x="0px" y="0px"
	 viewBox="0 0 512.001 512.001" style="enable-background:new 0 0 512.001 512.001;" xml:space="preserve">
<g>
	<g>
		<path d="M467,241h-52.729l-47.562-95.125c-7.14-14.279-20.995-23.514-36.708-24.728V106c0-24.813-20.187-45-45-45H135
			c-24.813,0-45,20.187-45,45v17.58c-17.459,6.192-30,22.865-30,42.42v15H45c-24.813,0-45,20.187-45,45v90c0,24.813,20.187,45,45,45
			h17.58c6.192,17.458,22.865,30,42.42,30h15c0,33.084,26.916,60,60,60s60-26.916,60-60h90c0,33.084,26.916,60,60,60
			s60-26.916,60-60c0-0.001,0-0.003,0-0.004L466.997,391c0.003,0,0.007,0,0.011,0c12.016,0,23.313-4.678,31.811-13.174
			c8.5-8.498,13.182-19.798,13.182-31.818V286C512,261.188,491.813,241,467,241z M60,331H45c-8.271,0-15-6.729-15-15v-90
			c0-8.271,6.729-15,15-15h15V331z M120,106c0-8.271,6.729-15,15-15h150c8.271,0,15,6.729,15,15v15H120V106z M180,421
			c-16.542,0-30-13.458-30-30s13.458-30,30-30s30,13.458,30,30S196.542,421,180,421z M390,421c-16.542,0-30-13.458-30-30
			s13.458-30,30-30s30,13.458,30,30S406.542,421,390,421z M482,301h-15c-8.284,0-15,6.716-15,15s6.716,15,15,15h15v15.007
			c0,4.006-1.56,7.771-4.393,10.603c-2.832,2.832-6.596,4.49-10.6,4.49c-0.001,0-0.003,0-0.004,0l-25.079-0.006
			C431.533,343.182,412.157,331,390,331c-22.159,0-41.537,12.084-51.928,30H231.928c-10.391-17.916-29.769-30-51.928-30
			s-41.537,12.084-51.928,30H105c-8.271,0-15-6.729-15-15c0-7.853,0-171.408,0-180c0-8.271,6.729-15,15-15
			c10.466,0,204.252,0,221.459,0c5.718,0,10.859,3.177,13.417,8.292l51.708,103.417C394.125,267.79,399.318,271,405,271h62
			c8.271,0,15,6.729,15,15V301z"/>
	</g>
</g>
<g>
	<g>
		<path d="M351.332,249.294l-29.99-60.001c-2.541-5.083-7.735-8.293-13.417-8.293H135c-8.284,0-15,6.716-15,15v60
			c0,8.284,6.716,15,15,15h202.915c5.198,0,10.026-2.691,12.759-7.113C353.407,259.465,353.656,253.944,351.332,249.294z M180,241
			h-30v-30h30V241z M240,241h-30v-30h30V241z M270,241v-30h28.653l14.995,30H270z"/>
	</g>
</g>
<g>
	<g>
		<path d="M285,301h-30c-8.284,0-15,6.716-15,15s6.716,15,15,15h30c8.284,0,15-6.716,15-15S293.284,301,285,301z"/>
	</g>
</g>
<g>
</g>
<g>
</g>
<g>
</g>
<g>
</g>
<g>
</g>
<g>
</g>
<g>
</g>
<g>
</g>
<g>
</g>
<g>
</g>
<g>
</g>
<g>
</g>
<g>
</g>
<g>
</g>
<g>
</g>
</svg>
